<?xml version="1.0" encoding="utf-8"?>
<!-- Generator: Adobe Illustrator 18.1.1, SVG Export Plug-In . SVG Version: 6.00 Build 0)  -->
<svg version="1.1" id="Layer_1" xmlns="http://www.w3.org/2000/svg" xmlns:xlink="http://www.w3.org/1999/xlink" x="0px" y="0px"
	 viewBox="0 0 1398 400" enable-background="new 0 0 1398 400" xml:space="preserve">
<path fill="#FFFFFF" d="M1342.5,296.2h-8.8v-5.4h24.2v5.4h-8.9v24h-6.5V296.2z"/>
<path fill="#FFFFFF" d="M1361.3,290.7h9.1l6.9,20.3h0.1l6.5-20.3h9.1v29.5h-6.1v-20.9h-0.1l-7.2,20.9h-5l-7.2-20.7h-0.1v20.7h-6.1
	V290.7z"/>
<path fill="#EC232B" d="M1379.7,145.3c6.3,6.3,16.2,0.7,16.2-5.8V26c0-6.5-5.3-11.8-11.8-11.8l-113.4,0c-6.5,0-12.5,9.6-6.4,15.7
	C1270.6,36.3,1373.4,139,1379.7,145.3z"/>
<path fill="#FFFFFF" d="M2.3,23.5c0-4.9,4.1-9,9.2-9h50c5,0,9.1,4,9.1,9v109.9c0,4.9,2.1,5.5,4.6,1.2L142,22.3
	c2.5-4.3,8.7-7.8,13.8-7.8h50.7c5,0,6.8,3.3,4,7.4l-68,97.5c-2.9,4.1-3.5,11.1-1.5,15.7l77.5,176.7c2,4.5-0.5,8.2-5.5,8.2h-52.4
	c-5,0-10.6-3.8-12.4-8.4l-48.3-124c-1.8-4.6-5.6-5.1-8.5-1l-15.6,22.2c-2.9,4.1-5.2,11.5-5.2,16.4v85.9c0,5-4.1,9-9.1,9h-50
	c-5,0-9.2-4-9.2-9V23.5z"/>
<path fill="#FFFFFF" d="M231.1,23.5c0-4.9,4.1-9,9.2-9h45.9c5,0,9.1,4,9.1,9v287.7c0,5-4.1,9-9.1,9h-45.9c-5,0-9.2-4-9.2-9V23.5z"/>
<path fill="#FFFFFF" d="M941,23.5c0-4.9,4.1-9,9.2-9H996c5,0,9.1,4,9.1,9v287.7c0,5-4.1,9-9.1,9h-45.9c-5,0-9.2-4-9.2-9V23.5z"/>
<path fill="#FFFFFF" d="M386.7,60.4c0,4.9-4.1,9-9.2,9h-45.9c-5,0-9.2-4.1-9.2-9V23.5c0-4.9,4.1-9,9.2-9h45.9c5,0,9.2,4,9.2,9V60.4z
	"/>
<path fill="#FFFFFF" d="M322.5,103.2c0-4.9,4.1-9,9.2-9h45.9c5,0,9.2,4,9.2,9v208c0,5-4.1,9-9.2,9h-45.9c-5,0-9.2-4-9.2-9V103.2z"/>
<path fill="#FFFFFF" d="M1096.6,60.4c0,4.9-4.1,9-9.2,9h-45.9c-5,0-9.2-4.1-9.2-9V23.5c0-4.9,4.1-9,9.2-9h45.9c5,0,9.2,4,9.2,9V60.4
	z"/>
<path fill="#FFFFFF" d="M1032.3,103.2c0-4.9,4.1-9,9.2-9h45.9c5,0,9.2,4,9.2,9v208c0,5-4.1,9-9.2,9h-45.9c-5,0-9.2-4-9.2-9V103.2z"
	/>
<path fill="#FFFFFF" d="M414.2,103.2c0-4.9,4.1-9,9.1-9h41.1c5,0,9.1,4,9.1,9V119c0,4.9,4.2,5.6,5.7,2c4.8-11.6,22-29.7,46.6-29.7
	c21,0,38.5,9.2,52.5,27.7c13.9,18.4,20.9,46.6,20.9,84.5c0,39.7-6.8,69.6-20.5,89.8c-13.7,20.1-32.8,30.2-57.6,30.2
	c-17.7,0-32.4-6.6-43.9-19.9v85.2c0,5-4.1,9-9.1,9h-44.9c-5,0-9.1-4-9.1-9V103.2z M477.3,218.6c0,4.9,0.2,13,0.4,18
	c0,0,1.3,26.7,4.9,33.1c3.6,6.5,10.8,9.7,21.7,9.7c9.7,0,16.9-4.3,21.6-13c4.7-8.6,7-29.5,7-62.8c0-27.7-2.1-46.5-6.1-56.3
	c-4.1-9.8-11-14.8-20.7-14.8c-8,0-14.9,3.1-20.5,9.3c-5.6,6.2-8.4,20.5-8.4,43V218.6z"/>
<path fill="#FFFFFF" d="M693.2,94v217.2c0,5-4.1,9-9.2,9h-43.2c-5,0-9.2-4-9.2-9c0,0,0.2-221.2,0.4-226.2c0,0,1.5-30,4.8-41
	c3.3-11.1,10.6-20.8,21.6-29.2C669.7,6.5,684.8,2.3,704,2.3c8.3,0,16.6,0.8,24.2,1.9c4.8,0.7,8.1,3.8,8.1,8.5v32.1
	c0,4.9-4.1,8.6-9.1,8.2c0,0-0.8-0.1-5.3-0.1c-12.3,0-20.2,2.6-23.6,7.7C694.9,65.9,693.2,77,693.2,94z"/>
<path fill="#FFFFFF" d="M918.2,207.4c0,77.6-30.7,116.4-92.1,116.4c-61.5,0-92.3-38.8-92.3-116.4c0-77.4,30.8-116.2,92.3-116.2
	C887.4,91.2,918.2,130,918.2,207.4z M852.8,207.5c0-28.5-2-47.7-5.9-57.7c-4-10-10.9-15.1-20.8-15.1c-9.6,0-16.5,4.8-20.6,14.3
	c-4.2,9.5-6.3,29-6.3,58.5c0,27.3,1.8,46.2,5.4,56.9c3.6,10.6,10.7,15.9,21.5,15.9c10.3,0,17.4-5.3,21.1-15.8
	C850.9,253.9,852.8,234.9,852.8,207.5z"/>
<path fill="#FFFFFF" d="M1302.4,207.4c0,77.6-30.7,116.4-92.1,116.4c-61.5,0-92.3-38.8-92.3-116.4c0-77.4,30.8-116.2,92.3-116.2
	C1271.7,91.2,1302.4,130,1302.4,207.4z M1237,207.5c0-28.5-2-47.7-5.9-57.7c-4-10-10.9-15.1-20.8-15.1c-9.6,0-16.5,4.8-20.6,14.3
	c-4.2,9.5-6.3,29-6.3,58.5c0,27.3,1.8,46.2,5.4,56.9c3.6,10.6,10.7,15.9,21.5,15.9c10.3,0,17.4-5.3,21.1-15.8
	C1235.1,253.9,1237,234.9,1237,207.5z"/>
<path fill="#FFFFFF" d="M733.5,134.9c0,4.9-4.1,9-9.2,9H614.8c-5,0-9.2-4-9.2-9v-31.7c0-4.9,4.1-9,9.2-9h109.5c5,0,9.2,4,9.2,9
	V134.9z"/>
<rect x="2.3" y="3" fill="none" width="1393.6" height="394.6"/>
<rect x="2.3" y="3" fill="none" width="1393.6" height="394.6"/>
</svg>
